<svg height="425.34375" version="1.1" width="816.75" xmlns="http://www.w3.org/2000/svg" style="overflow:hidden;position:relative;left:-.5px" viewBox="0 0 816.75 425.34375" preserveAspectRatio="xMinYMin meet">
    <desc style="-webkit-tap-highlight-color:transparent">
        Created with Raphaël 2.1.0
    </desc>
    <defs style="-webkit-tap-highlight-color:transparent">
        <marker id="raphael-marker-endblock33" markerHeight="3" markerWidth="3" orient="auto" refX="1.5" refY="1.5" style="-webkit-tap-highlight-color:transparent">
            <use xmlns:xlink="http://www.w3.org/1999/xlink" xlink:href="#raphael-marker-block" transform="rotate(180 1.5 1.5) scale(0.6,0.6)" stroke-width="1.6667" fill="black" stroke="none" style="-webkit-tap-highlight-color:transparent"/>
        </marker>
        <path stroke-linecap="round" d="M5,0 0,2.5 5,5z" id="raphael-marker-block" style="-webkit-tap-highlight-color:transparent"/>
    </defs>
    <a xmlns:xlink="http://www.w3.org/1999/xlink" xlink:href="http://www.google.com" xlink:show="new" style="-webkit-tap-highlight-color:transparent"/>
    <a xmlns:xlink="http://www.w3.org/1999/xlink" xlink:href="http://www.google.com" xlink:show="new" style="-webkit-tap-highlight-color:transparent">
        <rect x="0" y="0" width="50" height="36" r="20" rx="20" ry="20" fill="#ffffff" stroke="#000000" style="-webkit-tap-highlight-color:transparent" stroke-width="3" class="flowchart" id="st" transform="matrix(1,0,0,1,69,27.5859)"/>
        <text x="10" y="18" text-anchor="start" font="10px &quot;Arial&quot;" stroke="none" fill="#000000" style="-webkit-tap-highlight-color:transparent;text-anchor:start;font-style:normal;font-variant:normal;font-weight:400;font-stretch:normal;font-size:14px;line-height:normal;font-family:Arial" id="stt" class="flowchartt" font-size="14px" transform="matrix(1,0,0,1,69,27.5859)" stroke-width="1">
            <tspan dy="5" style="-webkit-tap-highlight-color:transparent">Start</tspan>
        </text>
    </a>
    <rect x="0" y="0" width="106" height="36" r="0" rx="0" ry="0" fill="#ffffff" stroke="#000000" style="-webkit-tap-highlight-color:transparent" stroke-width="3" class="flowchart" id="op1" transform="matrix(1,0,0,1,41,141.1719)"/>
    <text x="10" y="18" text-anchor="start" font="10px &quot;Arial&quot;" stroke="none" fill="#000000" style="-webkit-tap-highlight-color:transparent;text-anchor:start;font-style:normal;font-variant:normal;font-weight:400;font-stretch:normal;font-size:14px;line-height:normal;font-family:Arial" id="op1t" class="flowchartt" font-size="14px" transform="matrix(1,0,0,1,41,141.1719)" stroke-width="1">
        <tspan dy="5" style="-webkit-tap-highlight-color:transparent">My Operation</tspan>
    </text>
    <a xmlns:xlink="http://www.w3.org/1999/xlink" xlink:href="http://www.google.com" style="-webkit-tap-highlight-color:transparent">
        <path fill="#ffffff" stroke="#000000" d="M27.375,19.79296875L0,39.5859375L54.75,79.171875L109.5,39.5859375L54.75,0L0,39.5859375" stroke-width="3" id="cond" class="flowchart" style="-webkit-tap-highlight-color:transparent" transform="matrix(1,0,0,1,236.25,119.5859)"/>
        <text x="32.375" y="39.5859375" text-anchor="start" font="10px &quot;Arial&quot;" stroke="none" fill="#000000" style="-webkit-tap-highlight-color:transparent;text-anchor:start;font-style:normal;font-variant:normal;font-weight:400;font-stretch:normal;font-size:14px;line-height:normal;font-family:Arial" id="condt" class="flowchartt" font-size="14px" transform="matrix(1,0,0,1,236.25,119.5859)" stroke-width="1">
            <tspan dy="-3.390625" style="-webkit-tap-highlight-color:transparent">Yes </tspan><tspan dy="16.8" x="32.375" style="-webkit-tap-highlight-color:transparent">or No?</tspan>
        </text>
    </a>
    <a xmlns:xlink="http://www.w3.org/1999/xlink" xlink:href="http://www.google.com" style="-webkit-tap-highlight-color:transparent"/>
    <path fill="#ffffff" stroke="#000000" d="M36,18L0,36L72,72L144,36L72,0L0,36" stroke-width="3" id="c2" class="flowchart" style="-webkit-tap-highlight-color:transparent" transform="matrix(1,0,0,1,417.75,123.1719)"/>
    <text x="41" y="36" text-anchor="start" font="10px &quot;Arial&quot;" stroke="none" fill="#000000" style="-webkit-tap-highlight-color:transparent;text-anchor:start;font-style:normal;font-variant:normal;font-weight:400;font-stretch:normal;font-size:14px;line-height:normal;font-family:Arial" id="c2t" class="flowchartt" font-size="14px" transform="matrix(1,0,0,1,417.75,123.1719)" stroke-width="1">
        <tspan dy="5" style="-webkit-tap-highlight-color:transparent">Good idea</tspan>
    </text>
    <path fill="#ffffff" stroke="#000000" d="M10,18L0,36L156,36L176,0L20,0L10,18" stroke-width="3" id="io" class="flowchart" style="-webkit-tap-highlight-color:transparent" transform="matrix(1,0,0,1,401.75,272.7578)"/>
    <text x="30" y="18" text-anchor="start" font="10px &quot;Arial&quot;" stroke="none" fill="#000000" style="-webkit-tap-highlight-color:transparent;text-anchor:start;font-style:normal;font-variant:normal;font-weight:400;font-stretch:normal;font-size:14px;line-height:normal;font-family:Arial" id="iot" class="flowchartt" font-size="14px" transform="matrix(1,0,0,1,401.75,272.7578)" stroke-width="1">
        <tspan dy="5" style="-webkit-tap-highlight-color:transparent">catch something...</tspan>
    </text>
    <a xmlns:xlink="http://www.w3.org/1999/xlink" xlink:href="http://www.google.com" style="-webkit-tap-highlight-color:transparent"/>
    <a xmlns:xlink="http://www.w3.org/1999/xlink" xlink:href="http://www.google.com" style="-webkit-tap-highlight-color:transparent">
        <rect x="0" y="0" width="53" height="36" r="20" rx="20" ry="20" fill="#ffffff" stroke="#000000" style="-webkit-tap-highlight-color:transparent" stroke-width="3" class="flowchart" id="e" transform="matrix(1,0,0,1,463.25,386.3438)"/>
        <text x="10" y="18" text-anchor="start" font="10px &quot;Arial&quot;" stroke="none" fill="#000000" style="-webkit-tap-highlight-color:transparent;text-anchor:start;font-style:normal;font-variant:normal;font-weight:400;font-stretch:normal;font-size:14px;line-height:normal;font-family:Arial" id="et" class="flowchartt" font-size="14px" transform="matrix(1,0,0,1,463.25,386.3438)" stroke-width="1">
            <tspan dy="5" style="-webkit-tap-highlight-color:transparent">Ende</tspan>
        </text>
    </a>
    <rect x="0" y="0" width="49" height="36" r="0" rx="0" ry="0" fill="#ffffff" stroke="#000000" style="-webkit-tap-highlight-color:transparent" stroke-width="3" class="flowchart" id="op2" transform="matrix(1,0,0,1,681.25,141.1719)"/>
    <text x="10" y="18" text-anchor="start" font="10px &quot;Arial&quot;" stroke="none" fill="#000000" style="-webkit-tap-highlight-color:transparent;text-anchor:start;font-style:normal;font-variant:normal;font-weight:400;font-stretch:normal;font-size:14px;line-height:normal;font-family:Arial" id="op2t" class="flowchartt" font-size="14px" transform="matrix(1,0,0,1,681.25,141.1719)" stroke-width="1">
        <tspan dy="5" style="-webkit-tap-highlight-color:transparent">Stuff</tspan>
    </text>
    <rect x="0" y="0" width="132" height="36" r="0" rx="0" ry="0" fill="#ffffff" stroke="#000000" style="-webkit-tap-highlight-color:transparent" stroke-width="3" class="flowchart" id="sub1" transform="matrix(1,0,0,1,225,276.3438)"/>
    <rect x="10" y="0" width="112" height="36" r="0" rx="0" ry="0" fill="#ffffff" stroke="#000000" style="-webkit-tap-highlight-color:transparent" stroke-width="3" id="sub1i" transform="matrix(1,0,0,1,225,276.3438)"/>
    <text x="20" y="18" text-anchor="start" font="10px &quot;Arial&quot;" stroke="none" fill="#000000" style="-webkit-tap-highlight-color:transparent;text-anchor:start;font-style:normal;font-variant:normal;font-weight:400;font-stretch:normal;font-size:14px;line-height:normal;font-family:Arial" id="sub1t" class="flowchartt" font-size="14px" transform="matrix(1,0,0,1,225,276.3438)" stroke-width="1">
        <tspan dy="5" style="-webkit-tap-highlight-color:transparent">My Subroutine</tspan>
    </text>
    <path fill="none" stroke="#000000" d="M94,63.5859375C94,63.5859375,94,120.10643348097801,94,136.66517253790516" stroke-width="3" marker-end="url(#raphael-marker-endblock33)" style="-webkit-tap-highlight-color:transparent"/>
    <path fill="none" stroke="#000000" d="M147,159.171875C147,159.171875,213.62687654793262,159.171875,231.7475651403147,159.171875" stroke-width="3" marker-end="url(#raphael-marker-endblock33)" style="-webkit-tap-highlight-color:transparent"/>
    <path fill="none" stroke="#000000" d="M345.75,159.171875C345.75,159.171875,397.4835205078125,159.171875,413.2460775375366,159.171875" stroke-width="3" marker-end="url(#raphael-marker-endblock33)" style="-webkit-tap-highlight-color:transparent"/>
    <text x="350.75" y="149.171875" text-anchor="start" font="10px &quot;Arial&quot;" stroke="none" fill="#000000" style="-webkit-tap-highlight-color:transparent;text-anchor:start;font-style:normal;font-variant:normal;font-weight:400;font-stretch:normal;font-size:14px;line-height:normal;font-family:Arial" font-size="14px" stroke-width="1">
        <tspan dy="5" style="-webkit-tap-highlight-color:transparent">yes</tspan>
    </text>
    <path fill="none" stroke="#000000" d="M291,198.7578125C291,198.7578125,291,255.278308480978,291,271.83704753790516" stroke-width="3" marker-end="url(#raphael-marker-endblock33)" style="-webkit-tap-highlight-color:transparent"/>
    <text x="296" y="208.7578125" text-anchor="start" font="10px &quot;Arial&quot;" stroke="none" fill="#000000" style="-webkit-tap-highlight-color:transparent;text-anchor:start;font-style:normal;font-variant:normal;font-weight:400;font-stretch:normal;font-size:14px;line-height:normal;font-family:Arial" font-size="14px" stroke-width="1">
        <tspan dy="5.0078125" style="-webkit-tap-highlight-color:transparent">no</tspan>
    </text>
    <path fill="none" stroke="#000000" d="M489.75,195.171875C489.75,195.171875,489.75,251.692370980978,489.75,268.25111003790516" stroke-width="3" marker-end="url(#raphael-marker-endblock33)" style="-webkit-tap-highlight-color:transparent"/>
    <text x="494.75" y="205.171875" text-anchor="start" font="10px &quot;Arial&quot;" stroke="none" fill="#000000" style="-webkit-tap-highlight-color:transparent;text-anchor:start;font-style:normal;font-variant:normal;font-weight:400;font-stretch:normal;font-size:14px;line-height:normal;font-family:Arial" font-size="14px" stroke-width="1">
        <tspan dy="5" style="-webkit-tap-highlight-color:transparent">yes</tspan>
    </text>
    <path fill="none" stroke="#000000" d="M561.75,159.171875C561.75,159.171875,654.9863222837448,159.171875,676.7475342230173,159.171875" stroke-width="3" marker-end="url(#raphael-marker-endblock33)" style="-webkit-tap-highlight-color:transparent"/>
    <text x="566.75" y="149.171875" text-anchor="start" font="10px &quot;Arial&quot;" stroke="none" fill="#000000" style="-webkit-tap-highlight-color:transparent;text-anchor:start;font-style:normal;font-variant:normal;font-weight:400;font-stretch:normal;font-size:14px;line-height:normal;font-family:Arial" font-size="14px" stroke-width="1">
        <tspan dy="5" style="-webkit-tap-highlight-color:transparent">no</tspan>
    </text>
    <path fill="none" stroke="#000000" d="M489.75,308.7578125C489.75,308.7578125,489.75,365.278308480978,489.75,381.83704753790516" stroke-width="3" marker-end="url(#raphael-marker-endblock33)" style="-webkit-tap-highlight-color:transparent"/>
    <path fill="none" stroke="#000000" d="M705.75,177.171875C705.75,177.171875,705.75,361.34375,705.75,361.34375C705.75,361.34375,489.75,361.34375,489.75,361.34375C489.75,361.34375,489.75,374.6477212905884,489.75,381.8453776333481" stroke-width="3" marker-end="url(#raphael-marker-endblock33)" style="-webkit-tap-highlight-color:transparent"/>
    <path fill="none" stroke="#000000" d="M225,294.34375C225,294.34375,159.5,294.34375,159.5,294.34375C159.5,294.34375,159.5,165.171875,159.5,165.171875C159.5,165.171875,171.5,159.171875,159.5,153.171875C159.5,153.171875,159.5,116.171875,159.5,116.171875C159.5,116.171875,94,116.171875,94,116.171875C94,116.171875,94,129.47584629058838,94,136.6735026333481" stroke-width="3" marker-end="url(#raphael-marker-endblock33)" style="-webkit-tap-highlight-color:transparent"/>
</svg>
