<svg viewBox="0 0 16 15.997" xmlns="http://www.w3.org/2000/svg">
	<g transform="translate(-247.999 -101.5)">
		<path d="M6.5 3A3.5 3.5 0 113-.5 3.5 3.5 0 016.5 3zm-1 0A2.5 2.5 0 103 5.5 2.5 2.5 0 005.5 3z"
			transform="translate(253.171 102)" />
		<path
			d="M2.629 3.99A5.076 5.076 0 017.683.026a5.076 5.076 0 015.054 3.964c.151.721.1.72.1 5.984H2.525c0-5.356-.035-5.317.104-5.984zm.871.21c-.12.574-.083.623-.083 4.83h8.528V5A4.121 4.121 0 007.683.974 4.173 4.173 0 003.5 4.2z"
			transform="translate(248.5 107.523)" />
	</g>
</svg>
